<mxfile host="app.diagrams.net" modified="2020-11-03T19:19:40.082Z" agent="5.0 (Macintosh; Intel Mac OS X 10_14_6) AppleWebKit/537.36 (KHTML, like Gecko) Chrome/86.0.4240.111 Safari/537.36" etag="2NoPKQbpef8ai-qGUJ35" version="13.8.8" type="github">
  <diagram id="mMQHJy6WqsNtu3646oQs" name="Page-1">
    <mxGraphModel dx="786" dy="434" grid="1" gridSize="10" guides="1" tooltips="1" connect="1" arrows="1" fold="1" page="1" pageScale="1" pageWidth="850" pageHeight="1100" math="0" shadow="0">
      <root>
        <mxCell id="0" />
        <mxCell id="1" parent="0" />
        <mxCell id="oZmqK3HT-erYdiZUBr2i-4" style="edgeStyle=orthogonalEdgeStyle;rounded=0;orthogonalLoop=1;jettySize=auto;html=1;exitX=1;exitY=0.5;exitDx=0;exitDy=0;entryX=0;entryY=0.5;entryDx=0;entryDy=0;" edge="1" parent="1" source="oZmqK3HT-erYdiZUBr2i-1" target="oZmqK3HT-erYdiZUBr2i-2">
          <mxGeometry relative="1" as="geometry" />
        </mxCell>
        <mxCell id="oZmqK3HT-erYdiZUBr2i-1" value="Hemsida" style="rounded=0;whiteSpace=wrap;html=1;" vertex="1" parent="1">
          <mxGeometry x="160" y="80" width="120" height="60" as="geometry" />
        </mxCell>
        <mxCell id="oZmqK3HT-erYdiZUBr2i-5" style="edgeStyle=orthogonalEdgeStyle;rounded=0;orthogonalLoop=1;jettySize=auto;html=1;exitX=1;exitY=0.5;exitDx=0;exitDy=0;entryX=0;entryY=0.5;entryDx=0;entryDy=0;" edge="1" parent="1" source="oZmqK3HT-erYdiZUBr2i-2" target="oZmqK3HT-erYdiZUBr2i-3">
          <mxGeometry relative="1" as="geometry" />
        </mxCell>
        <mxCell id="oZmqK3HT-erYdiZUBr2i-2" value="Python-server" style="rounded=0;whiteSpace=wrap;html=1;" vertex="1" parent="1">
          <mxGeometry x="360" y="80" width="120" height="60" as="geometry" />
        </mxCell>
        <mxCell id="oZmqK3HT-erYdiZUBr2i-7" style="edgeStyle=orthogonalEdgeStyle;rounded=0;orthogonalLoop=1;jettySize=auto;html=1;exitX=0;exitY=0.5;exitDx=0;exitDy=0;entryX=1;entryY=0.5;entryDx=0;entryDy=0;" edge="1" parent="1" source="oZmqK3HT-erYdiZUBr2i-3" target="oZmqK3HT-erYdiZUBr2i-2">
          <mxGeometry relative="1" as="geometry" />
        </mxCell>
        <mxCell id="oZmqK3HT-erYdiZUBr2i-9" style="edgeStyle=orthogonalEdgeStyle;rounded=0;orthogonalLoop=1;jettySize=auto;html=1;exitX=0.5;exitY=1;exitDx=0;exitDy=0;entryX=1;entryY=0.5;entryDx=0;entryDy=0;" edge="1" parent="1" source="oZmqK3HT-erYdiZUBr2i-3" target="oZmqK3HT-erYdiZUBr2i-8">
          <mxGeometry relative="1" as="geometry" />
        </mxCell>
        <mxCell id="oZmqK3HT-erYdiZUBr2i-3" value="SuperCollider-program" style="rounded=0;whiteSpace=wrap;html=1;" vertex="1" parent="1">
          <mxGeometry x="560" y="80" width="120" height="60" as="geometry" />
        </mxCell>
        <mxCell id="oZmqK3HT-erYdiZUBr2i-10" style="edgeStyle=orthogonalEdgeStyle;rounded=0;orthogonalLoop=1;jettySize=auto;html=1;exitX=0;exitY=0.5;exitDx=0;exitDy=0;entryX=0.5;entryY=1;entryDx=0;entryDy=0;" edge="1" parent="1" source="oZmqK3HT-erYdiZUBr2i-8" target="oZmqK3HT-erYdiZUBr2i-1">
          <mxGeometry relative="1" as="geometry" />
        </mxCell>
        <mxCell id="oZmqK3HT-erYdiZUBr2i-8" value="Internet-radio&lt;br&gt;(Darkice/Icecast)" style="rounded=0;whiteSpace=wrap;html=1;" vertex="1" parent="1">
          <mxGeometry x="360" y="200" width="120" height="60" as="geometry" />
        </mxCell>
        <mxCell id="oZmqK3HT-erYdiZUBr2i-11" value="Osc" style="text;html=1;strokeColor=none;fillColor=none;align=center;verticalAlign=middle;whiteSpace=wrap;rounded=0;" vertex="1" parent="1">
          <mxGeometry x="500" y="90" width="40" height="20" as="geometry" />
        </mxCell>
        <mxCell id="oZmqK3HT-erYdiZUBr2i-13" value="Mp3" style="text;html=1;strokeColor=none;fillColor=none;align=center;verticalAlign=middle;whiteSpace=wrap;rounded=0;" vertex="1" parent="1">
          <mxGeometry x="270" y="210" width="40" height="20" as="geometry" />
        </mxCell>
        <mxCell id="oZmqK3HT-erYdiZUBr2i-14" value="REST" style="text;html=1;strokeColor=none;fillColor=none;align=center;verticalAlign=middle;whiteSpace=wrap;rounded=0;" vertex="1" parent="1">
          <mxGeometry x="300" y="90" width="40" height="20" as="geometry" />
        </mxCell>
        <mxCell id="oZmqK3HT-erYdiZUBr2i-15" value="Ljud" style="text;html=1;strokeColor=none;fillColor=none;align=center;verticalAlign=middle;whiteSpace=wrap;rounded=0;" vertex="1" parent="1">
          <mxGeometry x="540" y="210" width="40" height="20" as="geometry" />
        </mxCell>
      </root>
    </mxGraphModel>
  </diagram>
</mxfile>
